<?xml version="1.0" standalone="no"?>
<!DOCTYPE svg PUBLIC "-//W3C//DTD SVG 20010904//EN"
 "http://www.w3.org/TR/2001/REC-SVG-20010904/DTD/svg10.dtd">
<svg version="1.0" xmlns="http://www.w3.org/2000/svg"
 width="84.000000pt" height="128.000000pt" viewBox="0 0 84.000000 128.000000"
 preserveAspectRatio="xMidYMid meet">

<g transform="translate(0.000000,128.000000) scale(0.100000,-0.100000)"
fill="#000000" stroke="none">
<path d="M340 1258 c-23 -13 -25 -20 -32 -118 -6 -93 -5 -107 10 -123 24 -23
136 -34 185 -18 34 12 36 15 44 69 13 97 10 159 -9 178 -23 23 -162 31 -198
12z m200 -54 c0 -7 -66 -34 -85 -34 -8 0 -15 5 -15 10 0 6 15 10 33 10 17 0
39 5 47 10 18 11 20 12 20 4z m-117 -21 c-7 -2 -19 -2 -25 0 -7 3 -2 5 12 5
14 0 19 -2 13 -5z m72 -33 c-3 -5 -11 -10 -16 -10 -6 0 -7 5 -4 10 3 6 11 10
16 10 6 0 7 -4 4 -10z"/>
<path d="M247 948 c2 -24 6 -51 8 -60 2 -10 -1 -18 -6 -18 -11 0 -8 -38 4 -58
5 -7 0 -24 -13 -42 -31 -43 -80 -156 -80 -183 0 -13 4 -27 9 -33 15 -15 24
-74 12 -74 -6 0 -11 -11 -11 -25 0 -14 -4 -25 -10 -25 -5 0 -10 20 -10 45 0
33 -4 45 -15 45 -21 0 -27 -37 -21 -126 9 -138 11 -148 35 -190 23 -41 73 -80
90 -70 5 3 30 -4 56 -15 41 -18 61 -21 144 -16 53 3 107 8 120 13 16 5 22 4
18 -3 -4 -6 -28 -16 -54 -23 -26 -6 -50 -16 -54 -21 -3 -6 -28 -13 -55 -17
l-49 -7 43 -13 c30 -9 47 -10 56 -3 7 6 28 10 47 9 42 -1 117 31 97 43 -9 6 2
21 40 56 28 26 52 56 52 66 0 26 -40 21 -72 -10 -33 -31 -35 -22 -14 53 27 95
28 90 -18 89 -24 0 -52 6 -67 17 -15 10 -44 22 -65 26 -31 6 -39 13 -39 30 0
14 -12 29 -30 41 -17 10 -36 25 -43 34 -9 11 -23 14 -41 11 -35 -7 -52 21 -18
30 28 7 69 44 62 56 -3 5 1 32 9 59 9 31 13 70 9 103 l-5 53 122 0 c136 0 149
6 136 60 -5 18 -10 24 -15 17 -7 -12 -51 -5 -51 8 0 4 7 10 15 14 19 7 39 56
27 68 -4 4 -18 -1 -29 -11 -17 -16 -32 -19 -74 -16 -89 7 -193 27 -210 42 -32
27 -47 16 -42 -29z m300 -56 c0 -9 -5 -20 -11 -24 -7 -5 -6 -8 4 -9 8 0 4 -5
-10 -9 l-25 -8 25 -1 c14 -1 40 3 58 8 19 6 32 6 32 1 0 -19 -104 -41 -146
-31 -39 9 -39 9 -6 10 35 1 43 15 15 26 -17 7 -16 8 2 15 19 8 19 9 -2 9 -32
1 -19 29 15 33 37 5 49 0 49 -20z m63 -82 c-8 -6 -22 -10 -30 -10 -8 0 -4 6
10 13 27 15 44 12 20 -3z m-342 -367 c3 -17 -3 -24 -23 -29 -35 -9 -50 7 -35
36 15 28 54 24 58 -7z m100 5 c16 -16 15 -23 -4 -43 -12 -12 -19 -13 -30 -4
-8 6 -14 17 -14 23 0 13 20 36 30 36 3 0 11 -5 18 -12z m-104 -84 c6 -14 20
-16 101 -12 95 5 119 -3 68 -23 -26 -10 -27 -12 -8 -19 31 -12 -45 -24 -106
-17 -64 8 -74 -9 -10 -18 41 -6 50 -10 54 -30 3 -17 -3 -30 -20 -44 -28 -25
-33 -26 -33 -6 0 8 -16 19 -40 25 -40 11 -50 23 -29 35 6 5 4 11 -7 19 -9 7
-14 18 -11 23 4 6 -2 13 -13 16 -14 4 -20 14 -20 32 0 24 3 27 25 23 14 -3 25
-1 25 3 0 15 18 10 24 -7z m271 -88 c13 -19 14 -29 5 -45 -15 -28 -22 -26 -44
9 -9 17 -22 28 -27 25 -13 -9 -11 9 3 23 19 19 46 14 63 -12z m-97 -94 c3 -17
-2 -22 -17 -22 -16 0 -21 6 -21 26 0 33 33 30 38 -4z m152 8 c0 -11 -4 -20
-10 -20 -5 0 -10 2 -10 4 0 2 -3 11 -6 20 -4 11 -1 16 10 16 9 0 16 -8 16 -20z
m-30 -124 c0 -2 -16 -6 -35 -8 -19 -2 -35 0 -35 4 0 4 16 8 35 8 19 0 35 -2
35 -4z"/>
<path d="M433 953 c9 -2 25 -2 35 0 9 3 1 5 -18 5 -19 0 -27 -2 -17 -5z"/>
<path d="M189 793 c-13 -16 -12 -17 4 -4 9 7 17 15 17 17 0 8 -8 3 -21 -13z"/>
<path d="M140 710 c-12 -16 -19 -30 -16 -30 2 0 14 14 26 30 12 17 19 30 16
30 -2 0 -14 -13 -26 -30z"/>
<path d="M80 683 c-53 -83 -73 -149 -72 -243 0 -53 6 -100 16 -125 l15 -40 -4
45 c-2 25 -2 36 1 26 4 -11 12 -26 20 -34 8 -7 14 -20 14 -27 0 -8 4 -16 9
-19 5 -3 2 15 -6 42 -8 26 -17 90 -20 143 -6 99 -3 115 51 242 22 51 12 47
-24 -10z"/>
<path d="M137 583 c-4 -3 -7 -11 -7 -17 0 -6 5 -5 12 2 6 6 9 14 7 17 -3 3 -9
2 -12 -2z"/>
<path d="M464 424 c3 -9 6 -18 6 -20 0 -2 7 -4 15 -4 13 0 13 3 3 20 -15 24
-33 27 -24 4z"/>
<path d="M240 105 c0 -2 18 -14 40 -25 49 -25 53 -19 6 9 -33 21 -46 25 -46
16z"/>
<path d="M378 73 c7 -3 16 -2 19 1 4 3 -2 6 -13 5 -11 0 -14 -3 -6 -6z"/>
</g>
</svg>
